<svg xmlns="http://www.w3.org/2000/svg" viewBox="0 0 225.95 225.95"><defs><style>.cls-1{fill:#333;}.cls-1,.cls-2,.cls-3{fill-rule:evenodd;}.cls-2,.cls-3{fill:none;stroke:#333;stroke-linecap:round;stroke-linejoin:round;}.cls-2{stroke-width:12px;}.cls-3{stroke-width:11.23px;}</style></defs><title>Asset 1</title><g id="Layer_2" data-name="Layer 2"><g id="Layer_1-2" data-name="Layer 1"><path class="cls-1" d="M177.5,113m-129,0"/><path class="cls-2" d="M188.6,37.35Q220,68.7,220,112.95T188.6,188.6Q157.25,219.95,113,219.95T37.35,188.6Q6,157.25,6,112.95t31.35-75.6Q68.7,6,113,6T188.6,37.35Z"/><path class="cls-1" d="M125.09,169.67h0v-5.78h.4a5.45,5.45,0,0,0,3.6-1.65,5.62,5.62,0,0,0,0-8,5.52,5.52,0,0,0-3.6-1.72h-.4V147h0v-5.71h.4a5.66,5.66,0,0,0,5.25-5.65,5.79,5.79,0,0,0-5.25-5.68h-.4V118.65h.4a5.66,5.66,0,0,0,3.6-1.65,5.48,5.48,0,0,0,1.65-4,5.73,5.73,0,0,0-5.25-5.65h-.4v-5.55h0V96h.4a5.6,5.6,0,0,0,5.25-5.65,5.73,5.73,0,0,0-5.25-5.65h-.4V79.1h0V73.39h.4a5.45,5.45,0,0,0,3.6-1.65,5.72,5.72,0,0,0-3.6-9.67h-.4V56.48h0V50.7h10.7a43.95,43.95,0,0,1,30.94,13.17,43.43,43.43,0,0,1,9.38,13.93,44.42,44.42,0,0,1,3.4,15.95V96a44.57,44.57,0,0,1-3.4,16,43.14,43.14,0,0,1-9.38,14,42,42,0,0,1-13.8,9.38A45,45,0,0,1,135.79,139h-.92l36.39,36.25H126a4,4,0,0,0-.5,0h-.4Z"/><path class="cls-3" d="M125.09,56.48h3.1m-3.1,22.62h3.1M103.86,56.48h21.23m-40.74,0h3.4m-28,67.88h4m8.78-22.58H96m29.12,0h3.1m-3.1,45.2h3.1m-14.69-45.2h11.59M81.25,124.37h43.85M98.22,79.1h26.88m0,90.57h3.1M117.73,147h7.36m-73.27,0H84.35M72.2,169.67h4.23m14.73,0h33.94M46.44,56.48h15"/></g></g></svg>